<svg width="100" height="101" viewBox="0 0 100 101" fill="none" xmlns="http://www.w3.org/2000/svg">
<path d="M98.322 45.2375L83.1665 28.9619V10.1608C83.1665 6.76134 80.6013 4.00633 77.4311 4.00633C74.2682 4.00633 71.703 6.76134 71.703 10.1608V16.6513L60.4185 4.53244C54.8394 -1.45579 45.1391 -1.44517 39.5726 4.54328L1.67825 45.2375C-0.558744 47.6445 -0.558744 51.5394 1.67825 53.9428C3.91624 56.3492 7.55009 56.3492 9.78728 53.9428L47.678 13.2475C48.9124 11.9289 51.088 11.9289 52.3159 13.2436L90.2131 53.9428C91.3369 55.1461 92.802 55.7446 94.2667 55.7446C95.7344 55.7446 97.2019 55.1454 98.3222 53.9428C100.56 51.5396 100.56 47.6448 98.322 45.2375Z" fill="#1A9B9B"/>
<path d="M51.9911 24.9303C50.8902 23.7486 49.1076 23.7486 48.0099 24.9303L14.6779 60.7151C14.1517 61.28 13.8533 62.0513 13.8533 62.8562V88.9563C13.8533 95.0809 18.4775 100.047 24.1804 100.047H40.6831V72.6005H59.3143V100.047H75.8172C81.5199 100.047 86.1441 95.0809 86.1441 88.9565V62.8562C86.1441 62.0513 85.8484 61.28 85.3195 60.7151L51.9911 24.9303Z" fill="#1A9B9B"/>
</svg>
